<svg width="31" height="32" viewBox="0 0 31 32" fill="none" xmlns="http://www.w3.org/2000/svg">
<path d="M10.5263 15.7287C11.61 15.7287 12.4884 16.6354 12.4884 17.7537C12.4884 18.872 11.61 19.7791 10.5263 19.7791C9.4428 19.7791 8.56439 18.872 8.56439 17.7537C8.56439 16.6354 9.4428 15.7287 10.5263 15.7287Z" fill="#0F1D4E"/>
<path d="M29.633 17.3552L30.9634 6.52823L21.4204 2.78992L9.97347 8.43392L0 4.08598L1.34674 15.6366L0.0559875 27.0107L10.6529 29.0626L21.4613 26.9377L31 29.2099L29.633 17.3552ZM21.3851 3.93679L29.8379 7.22495L29.256 11.9592L20.8309 9.75929L21.3851 3.93679ZM20.2669 4.53779L19.821 9.49472L19.8136 9.49296L13.9803 10.2696L13.9454 10.4025C13.9381 10.4311 13.2612 13.0122 12.548 14.1861C12.0864 13.9059 11.5673 13.7182 11.0126 13.6487L10.5397 9.33263L20.2669 4.53779ZM19.3751 15.5944L14.3052 16.3835C14.0322 15.5862 13.5312 14.9014 12.8807 14.4115C13.5444 13.3179 14.1434 11.2008 14.2943 10.6419L19.7826 9.91067L19.3751 15.5944ZM9.50854 9.38525L9.97703 13.6591C8.436 13.8782 7.17208 15.0014 6.7088 16.4938L2.38569 15.803L1.97055 11.6639C3.40347 11.566 4.47833 11.0847 5.16716 10.2257C5.78813 9.45264 5.96672 8.53801 6.00088 7.85626L9.50854 9.38525ZM1.24808 5.78442L5.60659 7.68431C5.59411 8.31163 5.45669 9.22183 4.86132 9.96362C4.24019 10.7367 3.25228 11.1691 1.92014 11.2559L1.24808 5.78442ZM1.19184 26.1493L2.26406 16.8596L6.52768 17.5416C6.52448 17.6121 6.51762 17.682 6.51762 17.7541C6.51762 18.7216 6.84307 19.6107 7.38488 20.3166L5.17056 22.1521L4.47286 26.784L1.19184 26.1493ZM9.54497 27.7664L4.86364 26.86L5.53982 22.3722L7.64707 20.6261C8.29353 21.3159 9.16828 21.7762 10.1457 21.8713L9.54497 27.7664ZM7.31341 17.7541C7.31341 15.9245 8.7549 14.4366 10.5263 14.4366C12.2987 14.4366 13.7402 15.9246 13.7402 17.7541C13.7402 19.5827 12.2987 21.0707 10.5263 21.0707C8.75485 21.071 7.31341 19.5827 7.31341 17.7541ZM10.6515 27.9805L10.5612 27.9629L11.1866 21.831C13.0833 21.5042 14.5355 19.8028 14.5355 17.7531C14.5355 17.6423 14.5278 17.534 14.5194 17.4251L19.4751 16.6537L19.8887 21.0168C17.7147 21.1222 16.0896 21.8121 15.0666 23.0865C13.8739 24.5739 13.8176 26.4283 13.8794 27.3451L10.6515 27.9805ZM14.2764 27.2677C14.2283 26.3975 14.298 24.6898 15.3736 23.3492C16.325 22.1635 17.8599 21.5237 19.9271 21.4268L20.3675 26.0691L14.2764 27.2677ZM20.794 10.1722L29.2065 12.3681L28.7021 16.4705L20.3956 15.4355L20.794 10.1722ZM27.558 20.0144L23.7305 19.5446L24.4315 26.5534L21.3649 25.873L20.4953 16.4964L20.5847 16.4819L28.6145 17.5341L29.8024 27.8333L24.8333 26.6501L24.1773 20.0132L27.5887 20.4219L27.558 20.0144Z" fill="#0F1D4E"/>
</svg>
